<?xml version="1.0" encoding="UTF-8" standalone="no"?>
<!DOCTYPE svg PUBLIC "-//W3C//DTD SVG 1.1//EN"
 "http://www.w3.org/Graphics/SVG/1.1/DTD/svg11.dtd">
<!-- Generated by graphviz version 2.38.0 (20140413.2041)
 -->
<!-- Title: controllers_diagram Pages: 1 -->
<svg width="622pt" height="526pt"
 viewBox="0.00 0.00 622.19 526.15" xmlns="http://www.w3.org/2000/svg" xmlns:xlink="http://www.w3.org/1999/xlink">
<g id="graph0" class="graph" transform="scale(1 1) rotate(0) translate(244.195 242)">
<title>controllers_diagram</title>
<polygon fill="none" stroke="none" points="-244.195,284.149 -244.195,-242 378,-242 378,284.149 -244.195,284.149"/>
<!-- _diagram_info -->
<g id="node1" class="node"><title>_diagram_info</title>
<text text-anchor="start" x="168" y="-223.6" font-family="Times,serif" font-size="13.00">Controllers diagram</text>
<text text-anchor="start" x="168" y="-209.6" font-family="Times,serif" font-size="13.00">Date: Sep 07 2016 &#45; 14:59</text>
<text text-anchor="start" x="168" y="-195.6" font-family="Times,serif" font-size="13.00">Migration version: 20160829031110</text>
<text text-anchor="start" x="168" y="-181.6" font-family="Times,serif" font-size="13.00">Generated by RailRoady 1.5.1</text>
<text text-anchor="start" x="168" y="-167.6" font-family="Times,serif" font-size="13.00">http://railroady.prestonlee.com</text>
</g>
<!-- StaticPagesController -->
<g id="node2" class="node"><title>StaticPagesController</title>
<path fill="none" stroke="black" d="M-228.195,33.2521C-228.195,33.2521 -118.195,33.2521 -118.195,33.2521 -112.195,33.2521 -106.195,27.2521 -106.195,21.2521 -106.195,21.2521 -106.195,-122.748 -106.195,-122.748 -106.195,-128.748 -112.195,-134.748 -118.195,-134.748 -118.195,-134.748 -228.195,-134.748 -228.195,-134.748 -234.195,-134.748 -240.195,-128.748 -240.195,-122.748 -240.195,-122.748 -240.195,21.2521 -240.195,21.2521 -240.195,27.2521 -234.195,33.2521 -228.195,33.2521"/>
<text text-anchor="middle" x="-173.195" y="-119.548" font-family="Times,serif" font-size="14.00">StaticPagesController</text>
<polyline fill="none" stroke="black" points="-240.195,-111.748 -106.195,-111.748 "/>
<text text-anchor="start" x="-232.195" y="-96.5479" font-family="Times,serif" font-size="14.00">about</text>
<text text-anchor="start" x="-232.195" y="-81.5479" font-family="Times,serif" font-size="14.00">contact</text>
<text text-anchor="start" x="-232.195" y="-66.5479" font-family="Times,serif" font-size="14.00">faq</text>
<text text-anchor="start" x="-232.195" y="-51.5479" font-family="Times,serif" font-size="14.00">help</text>
<text text-anchor="start" x="-232.195" y="-36.5479" font-family="Times,serif" font-size="14.00">home</text>
<text text-anchor="start" x="-232.195" y="-21.5479" font-family="Times,serif" font-size="14.00">signup</text>
<polyline fill="none" stroke="black" points="-240.195,-13.7479 -106.195,-13.7479 "/>
<polyline fill="none" stroke="black" points="-240.195,10.2521 -106.195,10.2521 "/>
<text text-anchor="start" x="-232.195" y="25.4521" font-family="Times,serif" font-size="14.00">_layout</text>
</g>
<!-- UsersController -->
<g id="node3" class="node"><title>UsersController</title>
<path fill="none" stroke="black" d="M126.864,164.818C126.864,164.818 205.864,164.818 205.864,164.818 211.864,164.818 217.864,158.818 217.864,152.818 217.864,152.818 217.864,-66.1818 217.864,-66.1818 217.864,-72.1818 211.864,-78.1818 205.864,-78.1818 205.864,-78.1818 126.864,-78.1818 126.864,-78.1818 120.864,-78.1818 114.864,-72.1818 114.864,-66.1818 114.864,-66.1818 114.864,152.818 114.864,152.818 114.864,158.818 120.864,164.818 126.864,164.818"/>
<text text-anchor="middle" x="166.364" y="-62.9818" font-family="Times,serif" font-size="14.00">UsersController</text>
<polyline fill="none" stroke="black" points="114.864,-55.1818 217.864,-55.1818 "/>
<text text-anchor="start" x="122.864" y="-39.9818" font-family="Times,serif" font-size="14.00">create</text>
<text text-anchor="start" x="122.864" y="-24.9818" font-family="Times,serif" font-size="14.00">destroy</text>
<text text-anchor="start" x="122.864" y="-9.98176" font-family="Times,serif" font-size="14.00">edit</text>
<text text-anchor="start" x="122.864" y="5.01824" font-family="Times,serif" font-size="14.00">index</text>
<text text-anchor="start" x="122.864" y="20.0182" font-family="Times,serif" font-size="14.00">new</text>
<text text-anchor="start" x="122.864" y="35.0182" font-family="Times,serif" font-size="14.00">show</text>
<text text-anchor="start" x="122.864" y="50.0182" font-family="Times,serif" font-size="14.00">update</text>
<polyline fill="none" stroke="black" points="114.864,57.8182 217.864,57.8182 "/>
<polyline fill="none" stroke="black" points="114.864,81.8182 217.864,81.8182 "/>
<text text-anchor="start" x="122.864" y="97.0182" font-family="Times,serif" font-size="14.00">_layout</text>
<text text-anchor="start" x="122.864" y="112.018" font-family="Times,serif" font-size="14.00">admin_user</text>
<text text-anchor="start" x="122.864" y="127.018" font-family="Times,serif" font-size="14.00">correct_user</text>
<text text-anchor="start" x="122.864" y="142.018" font-family="Times,serif" font-size="14.00">logged_in_user</text>
<text text-anchor="start" x="122.864" y="157.018" font-family="Times,serif" font-size="14.00">user_params</text>
</g>
<!-- LocationsController -->
<g id="node4" class="node"><title>LocationsController</title>
<path fill="none" stroke="black" d="M-100.021,279.649C-100.021,279.649 0.97922,279.649 0.97922,279.649 6.97922,279.649 12.9792,273.649 12.9792,267.649 12.9792,267.649 12.9792,63.6489 12.9792,63.6489 12.9792,57.6489 6.97922,51.6489 0.97922,51.6489 0.97922,51.6489 -100.021,51.6489 -100.021,51.6489 -106.021,51.6489 -112.021,57.6489 -112.021,63.6489 -112.021,63.6489 -112.021,267.649 -112.021,267.649 -112.021,273.649 -106.021,279.649 -100.021,279.649"/>
<text text-anchor="middle" x="-49.5208" y="66.8489" font-family="Times,serif" font-size="14.00">LocationsController</text>
<polyline fill="none" stroke="black" points="-112.021,74.6489 12.9792,74.6489 "/>
<text text-anchor="start" x="-104.021" y="89.8489" font-family="Times,serif" font-size="14.00">create</text>
<text text-anchor="start" x="-104.021" y="104.849" font-family="Times,serif" font-size="14.00">destroy</text>
<text text-anchor="start" x="-104.021" y="119.849" font-family="Times,serif" font-size="14.00">edit</text>
<text text-anchor="start" x="-104.021" y="134.849" font-family="Times,serif" font-size="14.00">index</text>
<text text-anchor="start" x="-104.021" y="149.849" font-family="Times,serif" font-size="14.00">new</text>
<text text-anchor="start" x="-104.021" y="164.849" font-family="Times,serif" font-size="14.00">show</text>
<text text-anchor="start" x="-104.021" y="179.849" font-family="Times,serif" font-size="14.00">update</text>
<polyline fill="none" stroke="black" points="-112.021,187.649 12.9792,187.649 "/>
<polyline fill="none" stroke="black" points="-112.021,211.649 12.9792,211.649 "/>
<text text-anchor="start" x="-104.021" y="226.849" font-family="Times,serif" font-size="14.00">_layout</text>
<text text-anchor="start" x="-104.021" y="241.849" font-family="Times,serif" font-size="14.00">correct_user</text>
<text text-anchor="start" x="-104.021" y="256.849" font-family="Times,serif" font-size="14.00">location_params</text>
<text text-anchor="start" x="-104.021" y="271.849" font-family="Times,serif" font-size="14.00">set_location</text>
</g>
<!-- ApplicationController -->
<g id="node5" class="node"><title>ApplicationController</title>
<path fill="none" stroke="black" d="M-59.3392,42.6319C-59.3392,42.6319 52.6608,42.6319 52.6608,42.6319 58.6608,42.6319 64.6608,36.6319 64.6608,30.6319 64.6608,30.6319 64.6608,-39.3681 64.6608,-39.3681 64.6608,-45.3681 58.6608,-51.3681 52.6608,-51.3681 52.6608,-51.3681 -59.3392,-51.3681 -59.3392,-51.3681 -65.3392,-51.3681 -71.3392,-45.3681 -71.3392,-39.3681 -71.3392,-39.3681 -71.3392,30.6319 -71.3392,30.6319 -71.3392,36.6319 -65.3392,42.6319 -59.3392,42.6319"/>
<text text-anchor="middle" x="-3.3392" y="-36.1681" font-family="Times,serif" font-size="14.00">ApplicationController</text>
<polyline fill="none" stroke="black" points="-71.3392,-28.3681 64.6608,-28.3681 "/>
<polyline fill="none" stroke="black" points="-71.3392,-4.36814 64.6608,-4.36814 "/>
<polyline fill="none" stroke="black" points="-71.3392,19.6319 64.6608,19.6319 "/>
<text text-anchor="start" x="-63.3392" y="34.8319" font-family="Times,serif" font-size="14.00">_layout</text>
</g>
<!-- ApplicationController&#45;&gt;StaticPagesController -->
<g id="edge1" class="edge"><title>ApplicationController&#45;&gt;StaticPagesController</title>
<path fill="none" stroke="black" d="M-71.4473,-22.9653C-82.8919,-26.0903 -94.761,-29.3312 -106.178,-32.4486"/>
</g>
<!-- ApplicationController&#45;&gt;UsersController -->
<g id="edge2" class="edge"><title>ApplicationController&#45;&gt;UsersController</title>
<path fill="none" stroke="black" d="M64.7079,14.753C81.3984,19.443 98.9925,24.3869 114.766,28.8191"/>
</g>
<!-- ApplicationController&#45;&gt;LocationsController -->
<g id="edge3" class="edge"><title>ApplicationController&#45;&gt;LocationsController</title>
<path fill="none" stroke="black" d="M-16.2033,42.9911C-16.9506,45.7422 -17.7158,48.5593 -18.4947,51.4269"/>
</g>
<!-- SessionsController -->
<g id="node6" class="node"><title>SessionsController</title>
<path fill="none" stroke="black" d="M-2.80946,-112.351C-2.80946,-112.351 92.1905,-112.351 92.1905,-112.351 98.1905,-112.351 104.191,-118.351 104.191,-124.351 104.191,-124.351 104.191,-223.351 104.191,-223.351 104.191,-229.351 98.1905,-235.351 92.1905,-235.351 92.1905,-235.351 -2.80946,-235.351 -2.80946,-235.351 -8.80946,-235.351 -14.8095,-229.351 -14.8095,-223.351 -14.8095,-223.351 -14.8095,-124.351 -14.8095,-124.351 -14.8095,-118.351 -8.80946,-112.351 -2.80946,-112.351"/>
<text text-anchor="middle" x="44.6905" y="-220.151" font-family="Times,serif" font-size="14.00">SessionsController</text>
<polyline fill="none" stroke="black" points="-14.8095,-212.351 104.191,-212.351 "/>
<text text-anchor="start" x="-6.80946" y="-197.151" font-family="Times,serif" font-size="14.00">create</text>
<text text-anchor="start" x="-6.80946" y="-182.151" font-family="Times,serif" font-size="14.00">destroy</text>
<text text-anchor="start" x="-6.80946" y="-167.151" font-family="Times,serif" font-size="14.00">new</text>
<polyline fill="none" stroke="black" points="-14.8095,-159.351 104.191,-159.351 "/>
<polyline fill="none" stroke="black" points="-14.8095,-135.351 104.191,-135.351 "/>
<text text-anchor="start" x="-6.80946" y="-120.151" font-family="Times,serif" font-size="14.00">_layout</text>
</g>
<!-- ApplicationController&#45;&gt;SessionsController -->
<g id="edge4" class="edge"><title>ApplicationController&#45;&gt;SessionsController</title>
<path fill="none" stroke="black" d="M10.0398,-51.5786C15.3691,-70.3843 21.5742,-92.2803 27.2488,-112.304"/>
</g>
</g>
</svg>
