<?xml version="1.0" encoding="UTF-8" standalone="no"?>
<!DOCTYPE svg PUBLIC "-//W3C//DTD SVG 1.1//EN"
 "http://www.w3.org/Graphics/SVG/1.1/DTD/svg11.dtd">
<!-- Generated by graphviz version 2.38.0 (20140413.2041)
 -->
<!-- Title: models_diagram Pages: 1 -->
<svg width="394pt" height="230pt"
 viewBox="0.00 0.00 394.34 230.00" xmlns="http://www.w3.org/2000/svg" xmlns:xlink="http://www.w3.org/1999/xlink">
<g id="graph0" class="graph" transform="scale(1 1) rotate(0) translate(4 226)">
<title>models_diagram</title>
<polygon fill="none" stroke="none" points="-4,4 -4,-226 390.343,-226 390.343,4 -4,4"/>
<!-- _diagram_info -->
<g id="node1" class="node"><title>_diagram_info</title>
<text text-anchor="start" x="8" y="-207.6" font-family="Times,serif" font-size="13.00">Models diagram</text>
<text text-anchor="start" x="8" y="-193.6" font-family="Times,serif" font-size="13.00">Date: Sep 07 2016 &#45; 14:59</text>
<text text-anchor="start" x="8" y="-179.6" font-family="Times,serif" font-size="13.00">Migration version: 20160829031110</text>
<text text-anchor="start" x="8" y="-165.6" font-family="Times,serif" font-size="13.00">Generated by RailRoady 1.5.1</text>
<text text-anchor="start" x="8" y="-151.6" font-family="Times,serif" font-size="13.00">http://railroady.prestonlee.com</text>
</g>
<!-- ApplicationRecord -->
<g id="node2" class="node"><title>ApplicationRecord</title>
<ellipse fill="none" stroke="black" cx="309" cy="-183" rx="77.1866" ry="18"/>
<text text-anchor="middle" x="309" y="-179.3" font-family="Times,serif" font-size="14.00">ApplicationRecord</text>
</g>
<!-- User -->
<g id="node3" class="node"><title>User</title>
<ellipse fill="none" stroke="black" cx="225" cy="-90" rx="27.0966" ry="18"/>
<text text-anchor="middle" x="225" y="-86.3" font-family="Times,serif" font-size="14.00">User</text>
</g>
<!-- ApplicationRecord&#45;&gt;User -->
<g id="edge2" class="edge"><title>ApplicationRecord&#45;&gt;User</title>
<path fill="none" stroke="black" d="M293.593,-165.309C277.868,-148.274 253.695,-122.087 238.642,-105.779"/>
</g>
<!-- Product -->
<g id="node4" class="node"><title>Product</title>
<ellipse fill="none" stroke="black" cx="309" cy="-90" rx="38.1938" ry="18"/>
<text text-anchor="middle" x="309" y="-86.3" font-family="Times,serif" font-size="14.00">Product</text>
</g>
<!-- ApplicationRecord&#45;&gt;Product -->
<g id="edge3" class="edge"><title>ApplicationRecord&#45;&gt;Product</title>
<path fill="none" stroke="black" d="M309,-164.884C309,-148.614 309,-124.284 309,-108.04"/>
</g>
<!-- Location -->
<g id="node5" class="node"><title>Location</title>
<ellipse fill="none" stroke="black" cx="300" cy="-18" rx="42.4939" ry="18"/>
<text text-anchor="middle" x="300" y="-14.3" font-family="Times,serif" font-size="14.00">Location</text>
</g>
<!-- ApplicationRecord&#45;&gt;Location -->
<g id="edge4" class="edge"><title>ApplicationRecord&#45;&gt;Location</title>
<path fill="none" stroke="black" d="M325.097,-165.216C343.747,-143.634 370.204,-105 356,-72 349.173,-56.1388 335.007,-42.8049 322.631,-33.4787"/>
</g>
<!-- User&#45;&gt;Location -->
<g id="edge1" class="edge"><title>User&#45;&gt;Location</title>
<path fill="none" stroke="#d43dfc" d="M246.054,-69.3494C255.342,-60.6808 266.308,-50.4456 275.92,-41.475"/>
<ellipse fill="none" stroke="#d43dfc" cx="243.102" cy="-72.1052" rx="4.00002" ry="4.00002"/>
<polygon fill="#d43dfc" stroke="#d43dfc" points="275.969,-41.4291 286.35,-37.8957 279.624,-38.0175 283.279,-34.6059 283.279,-34.6059 283.279,-34.6059 279.624,-38.0175 280.209,-31.3162 275.969,-41.4291 275.969,-41.4291"/>
</g>
</g>
</svg>
