<?xml version="1.0" encoding="UTF-8" standalone="no"?>
<!DOCTYPE svg PUBLIC "-//W3C//DTD SVG 1.1//EN"
 "http://www.w3.org/Graphics/SVG/1.1/DTD/svg11.dtd">
<!-- Generated by graphviz version 2.38.0 (20140413.2041)
 -->
<!-- Title: models_diagram Pages: 1 -->
<svg width="394pt" height="537pt"
 viewBox="0.00 0.00 394.34 537.00" xmlns="http://www.w3.org/2000/svg" xmlns:xlink="http://www.w3.org/1999/xlink">
<g id="graph0" class="graph" transform="scale(1 1) rotate(0) translate(4 533)">
<title>models_diagram</title>
<polygon fill="none" stroke="none" points="-4,4 -4,-533 390.343,-533 390.343,4 -4,4"/>
<!-- _diagram_info -->
<g id="node1" class="node"><title>_diagram_info</title>
<text text-anchor="start" x="8" y="-514.6" font-family="Times,serif" font-size="13.00">Models diagram</text>
<text text-anchor="start" x="8" y="-500.6" font-family="Times,serif" font-size="13.00">Date: Sep 07 2016 &#45; 14:59</text>
<text text-anchor="start" x="8" y="-486.6" font-family="Times,serif" font-size="13.00">Migration version: 20160829031110</text>
<text text-anchor="start" x="8" y="-472.6" font-family="Times,serif" font-size="13.00">Generated by RailRoady 1.5.1</text>
<text text-anchor="start" x="8" y="-458.6" font-family="Times,serif" font-size="13.00">http://railroady.prestonlee.com</text>
</g>
<!-- ApplicationRecord -->
<g id="node2" class="node"><title>ApplicationRecord</title>
<ellipse fill="none" stroke="black" cx="309" cy="-490" rx="77.1866" ry="18"/>
<text text-anchor="middle" x="309" y="-486.3" font-family="Times,serif" font-size="14.00">ApplicationRecord</text>
</g>
<!-- User -->
<g id="node3" class="node"><title>User</title>
<path fill="none" stroke="black" d="M187,-263.5C187,-263.5 323,-263.5 323,-263.5 329,-263.5 335,-269.5 335,-275.5 335,-275.5 335,-402.5 335,-402.5 335,-408.5 329,-414.5 323,-414.5 323,-414.5 187,-414.5 187,-414.5 181,-414.5 175,-408.5 175,-402.5 175,-402.5 175,-275.5 175,-275.5 175,-269.5 181,-263.5 187,-263.5"/>
<text text-anchor="middle" x="255" y="-399.3" font-family="Times,serif" font-size="14.00">User</text>
<polyline fill="none" stroke="black" points="175,-391.5 335,-391.5 "/>
<text text-anchor="start" x="183" y="-376.3" font-family="Times,serif" font-size="14.00">id :INTEGER</text>
<text text-anchor="start" x="183" y="-361.3" font-family="Times,serif" font-size="14.00">name :varchar</text>
<text text-anchor="start" x="183" y="-346.3" font-family="Times,serif" font-size="14.00">email :varchar</text>
<text text-anchor="start" x="183" y="-331.3" font-family="Times,serif" font-size="14.00">created_at :datetime</text>
<text text-anchor="start" x="183" y="-316.3" font-family="Times,serif" font-size="14.00">updated_at :datetime</text>
<text text-anchor="start" x="183" y="-301.3" font-family="Times,serif" font-size="14.00">password_digest :varchar</text>
<text text-anchor="start" x="183" y="-286.3" font-family="Times,serif" font-size="14.00">remember_digest :varchar</text>
<text text-anchor="start" x="183" y="-271.3" font-family="Times,serif" font-size="14.00">admin :boolean</text>
</g>
<!-- ApplicationRecord&#45;&gt;User -->
<g id="edge2" class="edge"><title>ApplicationRecord&#45;&gt;User</title>
<path fill="none" stroke="black" d="M302.806,-471.908C297.625,-457.613 289.852,-436.165 282.07,-414.694"/>
</g>
<!-- Location -->
<g id="node4" class="node"><title>Location</title>
<path fill="none" stroke="black" d="M252,-0.5C252,-0.5 366,-0.5 366,-0.5 372,-0.5 378,-6.5 378,-12.5 378,-12.5 378,-214.5 378,-214.5 378,-220.5 372,-226.5 366,-226.5 366,-226.5 252,-226.5 252,-226.5 246,-226.5 240,-220.5 240,-214.5 240,-214.5 240,-12.5 240,-12.5 240,-6.5 246,-0.5 252,-0.5"/>
<text text-anchor="middle" x="309" y="-211.3" font-family="Times,serif" font-size="14.00">Location</text>
<polyline fill="none" stroke="black" points="240,-203.5 378,-203.5 "/>
<text text-anchor="start" x="248" y="-188.3" font-family="Times,serif" font-size="14.00">id :INTEGER</text>
<text text-anchor="start" x="248" y="-173.3" font-family="Times,serif" font-size="14.00">address :varchar</text>
<text text-anchor="start" x="248" y="-158.3" font-family="Times,serif" font-size="14.00">latitude :float</text>
<text text-anchor="start" x="248" y="-143.3" font-family="Times,serif" font-size="14.00">longitude :float</text>
<text text-anchor="start" x="248" y="-128.3" font-family="Times,serif" font-size="14.00">created_at :datetime</text>
<text text-anchor="start" x="248" y="-113.3" font-family="Times,serif" font-size="14.00">updated_at :datetime</text>
<text text-anchor="start" x="248" y="-98.3" font-family="Times,serif" font-size="14.00">street_name :varchar</text>
<text text-anchor="start" x="248" y="-83.3" font-family="Times,serif" font-size="14.00">country :varchar</text>
<text text-anchor="start" x="248" y="-68.3" font-family="Times,serif" font-size="14.00">door_number :varchar</text>
<text text-anchor="start" x="248" y="-53.3" font-family="Times,serif" font-size="14.00">zipcode :varchar</text>
<text text-anchor="start" x="248" y="-38.3" font-family="Times,serif" font-size="14.00">plot_number :varchar</text>
<text text-anchor="start" x="248" y="-23.3" font-family="Times,serif" font-size="14.00">county :varchar</text>
<text text-anchor="start" x="248" y="-8.3" font-family="Times,serif" font-size="14.00">user_id :integer</text>
</g>
<!-- ApplicationRecord&#45;&gt;Location -->
<g id="edge3" class="edge"><title>ApplicationRecord&#45;&gt;Location</title>
<path fill="none" stroke="black" d="M319.63,-472.143C328.116,-457.631 339.329,-435.8 344,-415 357.81,-353.504 350.982,-283.633 339.831,-226.75"/>
</g>
<!-- User&#45;&gt;Location -->
<g id="edge1" class="edge"><title>User&#45;&gt;Location</title>
<path fill="none" stroke="#34b2df" d="M274.948,-255.439C276.439,-249.265 277.962,-242.962 279.496,-236.614"/>
<ellipse fill="none" stroke="#34b2df" cx="273.996" cy="-259.379" rx="4.00001" ry="4.00001"/>
<polygon fill="#34b2df" stroke="#34b2df" points="279.563,-236.334 286.286,-227.671 280.738,-231.474 281.912,-226.614 281.912,-226.614 281.912,-226.614 280.738,-231.474 277.538,-225.557 279.563,-236.334 279.563,-236.334"/>
</g>
</g>
</svg>
